<svg id="visual" viewBox="0 0 900 600" width="900" height="600" xmlns="http://www.w3.org/2000/svg" xmlns:xlink="http://www.w3.org/1999/xlink" version="1.1"><g transform="translate(0 0)"><path d="M286.6 -496.4C373.2 -446.4 446.4 -373.2 496.4 -286.6C546.4 -200 573.2 -100 573.2 0C573.2 100 546.4 200 496.4 286.6C446.4 373.2 373.2 446.4 286.6 496.4C200 546.4 100 573.2 0 573.2C-100 573.2 -200 546.4 -286.6 496.4C-373.2 446.4 -446.4 373.2 -496.4 286.6C-546.4 200 -573.2 100 -573.2 0C-573.2 -100 -546.4 -200 -496.4 -286.6C-446.4 -373.2 -373.2 -446.4 -286.6 -496.4C-200 -546.4 -100 -573.2 0 -573.2C100 -573.2 200 -546.4 286.6 -496.4" fill="#f4fc5c"></path></g></svg>