<svg xmlns="http://www.w3.org/2000/svg" height="1296" width="1546" version="1.1" xmlns:xlink="http://www.w3.org/1999/xlink" xmlns:svgjs="http://svgjs.com/svgjs"><rect fill="#080b0c" width="1546" height="1296"></rect><g><path d="M1376.11 1040.99L1273.65 959.56 1342.88 1063.03 1376.11 1040.99Z" fill="#ff4f32" opacity="1" stroke-width="4" stroke="#000000"></path></g><g><path d="M1121.5 230.2C1129.4 230.2 1135.8 223.8 1135.8 215.9 1135.8 208 1129.4 201.6 1121.5 201.6 1113.6 201.6 1107.2 208 1107.2 215.9 1107.2 223.8 1113.6 230.2 1121.5 230.2Z" fill="#ffffff" opacity="1" stroke-width="4" stroke="#000000"></path></g><g><path d="M1173.35 800.8C1203.05 822.3 1270.05 797 1311.45 772.2 1357.45 744.6 1359.55 714.9 1341.15 714.9 1315.55 714.9 1252.15 793.7 1288.95 811 1319.35 825.4 1374.85 799.8 1389.15 816.1 1403.45 832.4 1409.65 868.3 1449.45 886.7" stroke="#000000" stroke-width="4" stroke-linecap="round" stroke-linejoin="round" opacity="1" fill="none"></path></g><g><path d="M303.3 1036.3C312.36 1036.3 319.7 1028.96 319.7 1019.9 319.7 1010.84 312.36 1003.5 303.3 1003.5 294.24 1003.5 286.9 1010.84 286.9 1019.9 286.9 1028.96 294.24 1036.3 303.3 1036.3Z" fill="#ffa0dc" opacity="1" stroke-width="4" stroke="#000000"></path></g><g><path d="M1150.7 1118.1C1160.58 1118.1 1168.6 1110.09 1168.6 1100.2 1168.6 1090.31 1160.58 1082.3 1150.7 1082.3 1140.81 1082.3 1132.8 1090.31 1132.8 1100.2 1132.8 1110.09 1140.81 1118.1 1150.7 1118.1Z" fill="#61ccff" opacity="1" stroke-width="4" stroke="#000000"></path></g><g><path d="M162.26 513.5C172.7 513.5 181.16 505.04 181.16 494.6 181.16 484.16 172.7 475.7 162.26 475.7 151.82 475.7 143.36 484.16 143.36 494.6 143.36 505.04 151.82 513.5 162.26 513.5Z" fill="#61ccff" opacity="1" stroke-width="4" stroke="#000000"></path></g><g><path d="M248.1 642.93C259.07 635.02 261.56 619.71 253.65 608.74 245.73 597.76 230.42 595.27 219.45 603.19 208.47 611.1 205.99 626.41 213.9 637.39 221.81 648.36 237.12 650.85 248.1 642.93Z" fill="#efdcd7" opacity="1" stroke-width="4" stroke="#000000"></path></g><g><path d="M105.05 854.4C144.55 819.6 217.75 772.6 279.05 812.5 279.05 812.5 218.75 733.7 249.45 696.9 289.55 648.7 407.55 779.7 389.85 802.2 371.65 825.2 330.95 722.3 352.25 665.1 369.05 620.1 449.25 687.6 462.15 727.5" stroke="#000000" stroke-width="4" stroke-linecap="round" stroke-linejoin="round" opacity="1" fill="none"></path></g><g><path d="M1182.78 322.8H1098.88C1098.88 322.8 1089.18 372.4 1118.38 398.7H1202.28C1173.08 372.4 1182.78 322.8 1182.78 322.8Z" fill="#efdcd7" opacity="1" stroke-width="4" stroke="#000000"></path><path d="M1065.18 279.9H981.28C981.28 279.9 971.58 329.5 1000.78 355.8H1084.68C1055.38 329.5 1065.18 279.9 1065.18 279.9Z" fill="#ffc930" opacity="1" stroke-width="4" stroke="#000000"></path></g><g><path d="M826.44 168.25C868.8 161.79 927.58 163.96 963.87 212.45 1000.17 260.93 968.94 290.93 916.89 250.97 864.85 211 823.27 143.65 837.46 132.4 851.65 121.16 919.51 169.08 913.94 216.57 908.38 264.05 830.67 274.01 823.15 215.01 818.48 178.16 872.75 149.44 948.57 169.75 1024.38 190.07 961.7 280.36 905.31 261.43 848.93 242.5 839.52 156 883.88 134.46 923.68 115.03 963.43 175.65 936.1 221.46" stroke="#000000" stroke-width="4" stroke-linecap="round" stroke-linejoin="round" opacity="1" fill="none"></path></g><g><path d="M967.38 530.24C953.7 530.24 942.57 519.12 942.57 505.44V425.43C942.57 411.75 953.7 400.62 967.38 400.62H1060.14C1073.82 400.62 1084.95 411.75 1084.95 425.43V505.44C1084.95 519.12 1073.82 530.24 1060.14 530.24H967.38Z" fill="#61ccff" opacity="1" stroke-width="4" stroke="#000000"></path><path d="M987.49 492.54C981.46 492.54 976.56 487.64 976.56 481.61V449.25C976.56 443.22 981.46 438.32 987.49 438.32H1021.97C1028 438.32 1032.9 443.22 1032.9 449.25V481.61C1032.9 487.64 1028 492.54 1021.97 492.54H987.49Z" fill="#ffa0dc" opacity="1" stroke-width="4" stroke="#000000"></path><path d="M1047.84 486.94C1046.65 486.94 1045.51 486.55 1044.58 485.8L1024.64 469.91C1024.34 469.67 1024.06 469.39 1023.81 469.08 1022.94 467.98 1022.55 466.62 1022.7 465.23 1022.86 463.84 1023.55 462.59 1024.64 461.72L1044.58 445.82C1045.5 445.09 1046.67 444.68 1047.84 444.68 1050.74 444.68 1053.08 447.03 1053.08 449.92V481.71C1053.08 482.89 1052.67 484.05 1051.93 484.97 1050.93 486.23 1049.44 486.94 1047.84 486.94Z" fill="#ffa0dc" opacity="1" stroke-width="4" stroke="#000000"></path></g><g><path d="M479.22 757.25H703.17C714.66 757.25 724.06 766.64 724.06 778.14V1034.86C724.06 1046.36 714.66 1055.75 703.17 1055.75H479.22C467.73 1055.75 458.34 1046.36 458.34 1034.86V778.14C458.34 766.54 467.73 757.25 479.22 757.25Z" fill="#61ccff" opacity="1" stroke-width="4" stroke="#000000"></path><path d="M506 823.21L515.2 832.4 530.09 817.61" stroke="#000000" stroke-width="4" stroke-linecap="round" stroke-linejoin="round" opacity="1" fill="none"></path><path d="M523.91 912.87C528.54 909.66 529.69 903.31 526.49 898.69 523.28 894.05 516.94 892.9 512.31 896.11 507.67 899.3 506.52 905.66 509.72 910.29 512.93 914.91 519.29 916.07 523.91 912.87Z" stroke="#000000" stroke-width="4" stroke-linecap="round" stroke-linejoin="round" opacity="1" fill="none"></path><path d="M523.9 992.21C528.53 989 529.69 982.66 526.48 978.03 523.28 973.41 516.93 972.25 512.3 975.45 507.67 978.65 506.51 985.01 509.72 989.63 512.93 994.26 519.28 995.42 523.9 992.21Z" stroke="#000000" stroke-width="4" stroke-linecap="round" stroke-linejoin="round" opacity="1" fill="none"></path><path d="M558.97 826.9H651.91" stroke="#000000" stroke-width="4" stroke-linecap="round" stroke-linejoin="round" opacity="1" fill="none"></path><path d="M558.97 904.55H651.91" stroke="#000000" stroke-width="4" stroke-linecap="round" stroke-linejoin="round" opacity="1" fill="none"></path><path d="M558.97 983.2H651.91" stroke="#000000" stroke-width="4" stroke-linecap="round" stroke-linejoin="round" opacity="1" fill="none"></path></g><g><path d="M330.72 602.43C321.84 602.41 313.33 598.88 307.05 592.6 300.77 586.32 297.23 577.81 297.23 568.93V251.47C297.23 242.59 300.77 234.08 307.05 227.8 313.33 221.52 321.84 217.98 330.72 217.97H742.6C751.48 217.98 759.99 221.52 766.27 227.8 772.55 234.08 776.08 242.59 776.09 251.47V568.93C776.08 577.81 772.55 586.32 766.27 592.6 759.99 598.88 751.48 602.41 742.6 602.43H330.72Z" fill="#ffffff" opacity="1" stroke-width="4" stroke="#000000"></path><path d="M297.25 289.93H777.57" stroke="#000000" stroke-width="4" opacity="1" fill="none"></path><path d="M332.47 265.95C339.5 265.95 345.21 260.25 345.21 253.22 345.21 246.18 339.5 240.48 332.47 240.48 325.43 240.48 319.73 246.18 319.73 253.22 319.73 260.25 325.43 265.95 332.47 265.95Z" fill="#ffffff" opacity="1" stroke-width="4" stroke="#000000"></path><path d="M371.07 265.95C378.11 265.95 383.81 260.25 383.81 253.22 383.81 246.18 378.11 240.48 371.07 240.48 364.04 240.48 358.33 246.18 358.33 253.22 358.33 260.25 364.04 265.95 371.07 265.95Z" fill="#ffffff" opacity="1" stroke-width="4" stroke="#000000"></path><path d="M409.67 265.95C416.71 265.95 422.41 260.25 422.41 253.22 422.41 246.18 416.71 240.48 409.67 240.48 402.64 240.48 396.93 246.18 396.93 253.22 396.93 260.25 402.64 265.95 409.67 265.95Z" fill="#ffffff" opacity="1" stroke-width="4" stroke="#000000"></path></g><g><path d="M374.31 331.43H503.61C511.83 331.43 518.53 338.13 518.53 346.35 518.53 354.58 511.83 361.27 503.61 361.27H374.31C366.09 361.27 359.39 354.58 359.39 346.35 359.39 338.13 366.09 331.43 374.31 331.43Z" fill="#ffa0dc" opacity="1" stroke-width="4" stroke="#000000"></path><path d="M374.31 393.1H449.9C458.12 393.1 464.82 399.8 464.82 408.02 464.82 416.24 458.12 422.94 449.9 422.94H374.31C366.09 422.94 359.39 416.24 359.39 408.02 359.39 399.8 366.09 393.1 374.31 393.1Z" fill="#f0dbe8" opacity="1" stroke-width="4" stroke="#000000"></path><path d="M499.63 393.1H523.5C531.73 393.1 538.42 399.8 538.42 408.02 538.42 416.24 531.73 422.94 523.5 422.94H499.63C491.41 422.94 484.71 416.24 484.71 408.02 484.71 399.8 491.41 393.1 499.63 393.1Z" fill="#61ccff" opacity="1" stroke-width="4" stroke="#000000"></path><path d="M374.31 454.77H392.88C401.1 454.77 407.8 461.47 407.8 469.69 407.8 477.91 401.1 484.61 392.88 484.61H374.31C366.09 484.61 359.39 477.91 359.39 469.69 359.39 461.47 366.09 454.77 374.31 454.77Z" fill="#f0dbe8" opacity="1" stroke-width="4" stroke="#000000"></path><path d="M442.61 454.77H554.01C562.23 454.77 568.92 461.47 568.92 469.69 568.92 477.91 562.23 484.61 554.01 484.61H442.61C434.38 484.61 427.69 477.91 427.69 469.69 427.69 461.47 434.38 454.77 442.61 454.77Z" fill="#61ccff" opacity="1" stroke-width="4" stroke="#000000"></path><path d="M603.74 454.77H699.22C707.44 454.77 714.14 461.47 714.14 469.69 714.14 477.91 707.44 484.61 699.22 484.61H603.74C595.51 484.61 588.82 477.91 588.82 469.69 588.82 461.47 595.51 454.77 603.74 454.77Z" fill="#ffffff" opacity="1" stroke-width="4" stroke="#000000"></path><path d="M374.31 516.43H433.99C442.21 516.43 448.91 523.13 448.91 531.35 448.91 539.58 442.21 546.27 433.99 546.27H374.31C366.09 546.27 359.39 539.58 359.39 531.35 359.39 523.13 366.09 516.43 374.31 516.43Z" fill="#6f7070" opacity="1" stroke-width="4" stroke="#000000"></path><path d="M483.72 516.43H496.98C505.2 516.43 511.9 523.13 511.9 531.35 511.9 539.58 505.2 546.27 496.98 546.27H483.72C475.5 546.27 468.8 539.58 468.8 531.35 468.8 523.13 475.5 516.43 483.72 516.43Z" fill="#f0dbe8" opacity="1" stroke-width="4" stroke="#000000"></path><path d="M546.71 516.43H625.62C633.84 516.43 640.54 523.13 640.54 531.35 640.54 539.58 633.84 546.27 625.62 546.27H546.71C538.49 546.27 531.79 539.58 531.79 531.35 531.79 523.13 538.49 516.43 546.71 516.43Z" fill="#ffa0dc" opacity="1" stroke-width="4" stroke="#000000"></path></g><g><path d="M92.83 387.88L326.04 427.03 126.03 323.96 92.83 387.88Z" fill="#ffc930" opacity="1" stroke-width="4" stroke="#000000"></path></g><g><path d="M1008.96 664.86H1224.58C1234.76 664.87 1244.52 668.91 1251.72 676.11 1258.92 683.31 1262.96 693.07 1262.97 703.25V726.85C1262.96 737.03 1258.92 746.8 1251.72 753.99 1244.52 761.19 1234.76 765.24 1224.58 765.24H1008.96C998.78 765.24 989.02 761.19 981.82 753.99 974.62 746.8 970.58 737.03 970.57 726.85V703.25C970.58 693.07 974.62 683.31 981.82 676.11 989.02 668.91 998.78 664.87 1008.96 664.86V664.86Z" fill="#efdcd7" opacity="1" stroke-width="4" stroke="#000000"></path><path d="M1024.3 734.58C1035.13 734.58 1043.91 725.8 1043.91 714.96 1043.91 704.13 1035.13 695.34 1024.3 695.34 1013.46 695.34 1004.68 704.13 1004.68 714.96 1004.68 725.8 1013.46 734.58 1024.3 734.58Z" stroke="#000000" stroke-width="4" stroke-linecap="round" stroke-linejoin="round" opacity="1" fill="none"></path><path d="M1038.18 728.85L1044.15 734.82" stroke="#000000" stroke-width="4" stroke-linecap="round" stroke-linejoin="round" opacity="1" fill="none"></path><path d="M1068.66 731.98H1223.19" stroke="#000000" stroke-width="4" stroke-linecap="round" stroke-linejoin="round" opacity="1" fill="none"></path></g><g><path d="M1309.2 868.6C1315.55 868.6 1320.7 863.45 1320.7 857.1 1320.7 850.75 1315.55 845.6 1309.2 845.6 1302.85 845.6 1297.7 850.75 1297.7 857.1 1297.7 863.45 1302.85 868.6 1309.2 868.6Z" fill="#ffa0dc" opacity="1" stroke-width="4" stroke="#000000"></path></g><g><path d="M1187.39 465.46L1145.01 533.76C1138.94 543.53 1137.21 555.37 1140.17 566.48L1160.2 641.43C1166.18 663.84 1189.22 677.21 1211.67 671.19L1307.7 645.58C1330.15 639.61 1343.48 616.56 1337.51 594.11L1317.47 519.15C1314.51 508.05 1307.06 498.62 1296.94 493.2L1226.18 455.1C1212.51 447.8 1195.54 452.29 1187.39 465.46Z" fill="#ffffff" opacity="1" stroke-width="4" stroke="#000000"></path><path d="M1208.22 465.71C1212.07 464.67 1216.16 465.17 1219.72 467.04L1290.48 505.14C1297.29 508.84 1302.27 515.16 1304.3 522.66L1324.33 597.66C1328.38 612.86 1319.35 628.4 1304.2 632.5L1208.12 658.06C1192.92 662.11 1177.38 653.08 1173.28 637.93L1153.3 562.97C1151.32 555.47 1152.51 547.53 1156.55 540.91L1198.89 472.62C1201.01 469.21 1204.32 466.75 1208.22 465.71ZM1204.71 452.58C1197.51 454.51 1191.34 459.1 1187.39 465.46L1145.01 533.76C1138.94 543.53 1137.21 555.37 1140.17 566.48L1160.2 641.43C1166.18 663.84 1189.22 677.21 1211.67 671.19L1307.7 645.58C1330.15 639.61 1343.48 616.56 1337.51 594.11L1317.47 519.15C1314.51 508.05 1307.06 498.62 1296.94 493.2L1226.18 455.1C1219.57 451.55 1211.92 450.66 1204.71 452.58Z" fill="#61ccff" opacity="1" stroke-width="4" stroke="#000000"></path><path d="M1270.17 530.5L1170.38 557.13 1195.77 652.29 1295.56 625.67 1270.17 530.5Z" fill="#ffffff00" opacity="0" stroke-width="4" stroke="#ffffff00"></path><path d="M1276.33 520.48L1176.54 547.11 1201.93 642.27 1301.73 615.65 1276.33 520.48Z" fill="#ffffff" opacity="1" stroke-width="4" stroke="#000000"></path><path d="M1243.35 597.42L1139.63 564.5 1160.15 641.38C1166.13 663.79 1189.17 677.16 1211.62 671.14L1307.6 645.53C1330.05 639.56 1343.38 616.51 1337.41 594.11L1316.88 517.23 1243.35 597.42Z" fill="#61ccff" opacity="1" stroke-width="4" stroke="#000000"></path><path d="M1237.18 574.32L1165.19 652.93C1175.01 668.52 1193.81 675.93 1211.62 671.19L1307.6 645.53C1325.42 640.79 1338.05 625 1338.79 606.59L1237.18 574.32Z" fill="#61ccff" opacity="1" stroke-width="4" stroke="#000000"></path><path d="M1233.98 626.87L1266.15 618.29C1270.69 617.06 1275.33 619.77 1276.56 624.31 1277.8 628.85 1275.08 633.49 1270.54 634.72L1238.37 643.31C1233.83 644.54 1229.19 641.83 1227.96 637.29 1226.72 632.7 1229.44 628.06 1233.98 626.87Z" fill="#ffffff" opacity="1" stroke-width="4" stroke="#000000"></path><path d="M1240.1 633.98L1264.37 627.52" stroke="#000000" stroke-width="4" stroke-linecap="round" stroke-linejoin="round" opacity="1" fill="none"></path><path d="M1165.14 653.28L1221.69 590.8" stroke="#000000" stroke-width="4" stroke-linecap="round" stroke-linejoin="round" opacity="1" fill="none"></path><path d="M1258.65 581.13L1338.39 606.4" stroke="#000000" stroke-width="4" stroke-linecap="round" stroke-linejoin="round" opacity="1" fill="none"></path><path d="M1154.28 567.66L1140.71 563.56" stroke="#000000" stroke-width="4" stroke-linecap="round" stroke-linejoin="round" opacity="1" fill="none"></path><path d="M1305.87 527.69L1315.94 517.38" stroke="#000000" stroke-width="4" stroke-linecap="round" stroke-linejoin="round" opacity="1" fill="none"></path></g><g><path d="M1302.98 491.46L1280.01 475.36C1278.94 474.61 1277.44 474.85 1276.64 475.96 1276.37 476.35 1276.21 476.87 1276.21 477.34V509.13C1276.21 510.47 1277.28 511.54 1278.62 511.54 1279.1 511.54 1279.57 511.38 1279.97 511.11L1302.94 495.41C1304.05 494.66 1304.32 493.16 1303.57 492.09 1303.41 491.85 1303.21 491.61 1302.98 491.46Z" fill="#ffa0dc" opacity="1" stroke-width="4" stroke="#000000"></path><path d="M1302.98 491.46L1280.01 475.36C1278.94 474.61 1277.44 474.85 1276.64 475.96 1276.37 476.35 1276.21 476.87 1276.21 477.34V502.25L1299.3 497.9 1302.94 495.41C1304.05 494.66 1304.32 493.16 1303.57 492.09 1303.41 491.85 1303.21 491.61 1302.98 491.46Z" fill="#ffa0dc00" opacity="0" stroke-width="4" stroke="#ffffff00"></path><path d="M1345.05 400.2H1272.33C1259.29 400.2 1248.73 410.76 1248.73 423.8V471.84C1248.73 484.89 1259.29 495.45 1272.33 495.45L1345.05 495.45C1358.09 495.45 1368.65 484.89 1368.65 471.84V423.8C1368.61 410.76 1358.06 400.2 1345.05 400.2Z" fill="#ffa0dc" opacity="1" stroke-width="4" stroke="#000000"></path><path d="M1326.15 430.37C1323.26 427.48 1318.56 427.48 1315.67 430.37L1291.23 454.8C1288.35 457.69 1288.35 462.39 1291.23 465.28 1294.12 468.17 1298.83 468.17 1301.71 465.28L1326.15 440.85C1329.03 437.96 1329.03 433.25 1326.15 430.37Z" fill="#ffffff" opacity="1" stroke-width="4" stroke="#000000"></path><path d="M1291.23 430.37C1288.35 433.25 1288.35 437.96 1291.23 440.85L1315.67 465.28C1318.56 468.17 1323.26 468.17 1326.15 465.28 1329.03 462.39 1329.03 457.69 1326.15 454.8L1301.71 430.37C1298.83 427.48 1294.12 427.48 1291.23 430.37Z" fill="#ffffff" opacity="1" stroke-width="4" stroke="#000000"></path></g><g><path d="M481.41 926.29L486.63 930.96C486.72 930.96 486.72 931.05 486.72 931.14L491.13 944.91C491.13 945 491.13 945.09 490.95 945.09L477.19 945C477.19 945 465.67 940.05 464.77 939.6V939.51L474.49 928.54C474.49 928.54 474.58 928.45 474.67 928.45L481.41 926.29Z" fill="#3f3e3d" opacity="1" stroke-width="4" stroke="#000000"></path><path d="M456.32 951.02L448.4 939.24 442.11 938.43 435.81 940.05 429.51 952.82C429.51 952.91 429.51 952.91 429.6 952.91L442.92 954.8 456.23 951.11C456.41 951.11 456.41 951.11 456.32 951.02Z" fill="#ffffff" opacity="1" stroke-width="4" stroke="#000000"></path><path d="M435.9 1003.1L476.92 1003.82 495.63 982.06C495.71 981.97 495.63 981.88 495.54 981.88H418.54C418.45 981.88 418.45 981.97 418.45 982.06L435.9 1003.1Z" fill="#22181f" opacity="1" stroke-width="4" stroke="#000000"></path><path d="M444.89 1035.39L464.77 939.51C464.77 939.42 464.86 939.42 464.86 939.42L491.04 944.82C491.13 944.82 491.13 944.91 491.13 944.91L471.34 1040.88 444.89 1035.39Z" fill="#ffc930" opacity="1" stroke-width="4" stroke="#000000"></path><path d="M482.94 919.36L486.81 930.96C486.81 931.05 486.81 931.05 486.72 931.05L474.76 928.54C474.67 928.54 474.67 928.45 474.67 928.36L482.76 919.27C482.76 919.27 482.85 919.27 482.94 919.36Z" fill="#ffc930" opacity="1" stroke-width="4" stroke="#000000"></path><path d="M429.6 952.91L456.32 951.11C456.41 951.11 456.41 951.11 456.41 951.2L462.79 1048.98 435.9 1050.69 429.51 952.91C429.51 952.91 429.51 952.91 429.6 952.91Z" fill="#efdcd7" opacity="1" stroke-width="4" stroke="#000000"></path><path d="M441.3 928.9L435.9 940.05 448.4 939.24 441.48 928.81C441.48 928.81 441.39 928.81 441.3 928.9Z" fill="#efdcd7" opacity="1" stroke-width="4" stroke="#000000"></path><path d="M457.13 995.28C471.07 995.37 484.65 990.69 495.63 981.97 495.71 981.88 495.8 981.97 495.8 982.06L490.5 1030.45 481.86 1059.5 432.75 1059.05 423.67 1029.73 418.45 982.06C418.45 981.97 418.54 981.97 418.63 981.97 429.6 990.69 443.19 995.37 457.13 995.28Z" fill="#ffa0dc" opacity="1" stroke-width="4" stroke="#000000"></path><path d="M423.67 1029.73C443.1 1013.36 471.34 1013.81 490.41 1030.45V1030.54L486.72 1064.45H427.35L423.67 1029.73Z" fill="#a91071" opacity="1" stroke-width="4" stroke="#000000"></path></g><g><path d="M478.23 796.86C514.64 796.86 544.16 767.34 544.16 730.93 544.16 694.52 514.64 665 478.23 665 441.82 665 412.3 694.52 412.3 730.93 412.3 767.34 441.82 796.86 478.23 796.86Z" fill="#ff4f32" opacity="1" stroke-width="4" stroke="#000000"></path><path d="M474.66 764.54C473.27 764.54 471.96 764.02 470.99 763.01L448.02 740.04C445.97 738 445.97 734.71 448.02 732.7 450.06 730.69 453.35 730.65 455.36 732.7L474.14 751.48 500.64 717.21C502.41 714.92 505.67 714.51 507.92 716.28 510.21 718.04 510.62 721.3 508.85 723.55L478.71 762.49C477.81 763.67 476.43 764.4 474.94 764.5 474.87 764.5 474.76 764.54 474.66 764.54Z" fill="#ff4f3200" opacity="0" stroke-width="4" stroke="#ffffff00"></path><path d="M474.66 755.6C473.27 755.6 471.96 755.08 470.99 754.07L448.02 731.1C445.97 729.06 445.97 725.77 448.02 723.76 450.06 721.75 453.35 721.71 455.36 723.76L474.14 742.54 500.64 708.27C502.41 705.99 505.67 705.57 507.92 707.34 510.21 709.1 510.62 712.36 508.85 714.61L478.71 753.55C477.81 754.73 476.43 755.46 474.94 755.56 474.87 755.56 474.76 755.6 474.66 755.6Z" fill="#ffffff" opacity="1" stroke-width="4" stroke="#000000"></path></g><g><path d="M771.9 314.05C755.1 304.75 738.9 300.75 728.1 305.05 703.1 313.95 691.8 356.05 691.4 357.75 691.4 357.75 682.2 357.65 680.9 361.35 679.4 365.95 686.1 372.75 686.1 372.75 682.5 383.15 678.5 397.25 684.4 409.45 690 420.95 704.7 426.95 723.1 423.95L722.5 430.75 794.1 441.55C795 438.55 800.3 384.35 801.3 374.05 803.3 352.25 798.8 328.85 771.9 314.05Z" fill="#ac704e" opacity="1" stroke-width="4" stroke="#000000"></path><path d="M723.2 424.05C723.2 424.05 734.2 421.45 740.9 418.15L721.7 440.05 723.2 424.05Z" fill="#ffa0dc00" opacity="0" stroke-width="4" stroke="#ffffff00"></path><path d="M967.6 1107.05L1040.1 1074.25 1036.29 1054.02C1035.6 1049.85 1034.5 1045.85 1033.4 1042.05 1032.6 1039.35 1031.8 1036.55 1030.9 1033.75 1027.5 1022.55 1023.4 1010.05 1018.4 996.25 1013.3 982.05 1008 969.25 1002.6 957.45L904.5 992.05C918 1012.55 931 1033.45 939.1 1049.95 941.3 1054.15 943.1 1058.75 944.7 1063.25L967.6 1107.05Z" fill="#ac704e" opacity="1" stroke-width="4" stroke="#000000"></path><path d="M1006.5 1066.75C993.3 1072.35 989.3 1094.15 980.9 1095.45 972.6 1096.75 980.3 1075.75 975.1 1063.45 970.5 1052.65 959.9 1056.55 944.4 1063.15 945.4 1065.95 946.2 1068.75 946.9 1071.55 948.4 1078.05 948.6 1083.65 947.1 1088.05 939.2 1111.05 918.5 1123.15 918 1145.05L918.1 1145.65 1045.1 1091.65V1091.55C1042.7 1079.05 1039.8 1066.25 1036.4 1053.75L1006.5 1066.75Z" fill="#efdcd7" opacity="1" stroke-width="4" stroke="#000000"></path><path d="M962.9 1089.35L947.63 1087.92" stroke="#000000" stroke-width="4" stroke-linecap="round" stroke-linejoin="round" opacity="1" fill="none"></path><path d="M958.9 1105.55L941.91 1100.18" stroke="#000000" stroke-width="4" stroke-linecap="round" stroke-linejoin="round" opacity="1" fill="none"></path><path d="M678.6 409.05C670.3 405.35 662.4 419.75 655.1 427.45 651.7 431.05 647.6 432.85 645.9 429.45 638.7 415.15 672.5 411.05 675.6 404.95 678.7 398.85 673.6 394.75 661.3 396.75 642.9 391.65 625.8 399.95 618.3 412.05 610.1 425.35 610.8 429.55 594.8 458.05 591.9 463.25 588.9 468.85 586.1 474.45L633.4 504.35 659.3 460.15C659.2 460.15 687.8 413.15 678.6 409.05Z" fill="#ac704e" opacity="1" stroke-width="4" stroke="#000000"></path><path d="M842.2 484.75C828.9 460.75 806.4 446.85 794.1 441.75 794.4 440.85 795 435.95 795.7 429.15L722.5 429.45 721.4 440.55C721.4 440.55 702.1 440.95 688.7 444.65 677.5 447.75 669.3 450.95 659 460.15L628.3 496.85 586.5 473.15C566.3 513.35 550.8 562.95 580.2 586.85 619.1 618.55 679.4 560.35 679.4 560.35L700.1 627.95 812.7 629.75 832.9 646.05C832.9 646.05 848.9 644.55 858.3 639.05 902.4 613.85 857.6 512.35 842.2 484.75Z" fill="#ffc930" opacity="1" stroke-width="4" stroke="#000000"></path><path d="M888.2 483.65C880 420.25 815.6 422.25 806.4 375.25 800.9 347.15 801.6 324.75 774.7 309.85 757.9 300.55 738.9 300.75 728.1 305.05 714.6 309.85 705.4 323.05 700.1 334.45L714.7 347.35C714.7 347.35 738.33 334.26 737.9 335.25 727.7 348.55 722.9 355.25 722.9 355.25L738.7 370.45C738.7 370.45 769.3 354.05 775.6 373.65 781.9 393.25 751.1 406.95 751.1 406.95 745 464.15 770.6 483.75 770.6 483.75H793.5C793.5 483.75 786.34 453.48 788 455.15 797.2 467.45 813.1 483.75 813.1 483.75L888.2 483.65Z" fill="#221f1f" opacity="1" stroke-width="4" stroke="#000000"></path><path d="M812.6 627.85L826.8 541.95" stroke="#000000" stroke-width="4" stroke-linecap="round" stroke-linejoin="round" opacity="1" fill="none"></path><path d="M819.7 593.05L834 599.15" stroke="#000000" stroke-width="4" stroke-linecap="round" stroke-linejoin="round" opacity="1" fill="none"></path><path d="M680.2 559.65L702.1 541.45" stroke="#000000" stroke-width="4" stroke-linecap="round" stroke-linejoin="round" opacity="1" fill="none"></path><path d="M634.6 407.95C641.68 402.56 651.93 398.4 661.14 396.81" stroke="#000000" stroke-width="4" stroke-linecap="round" stroke-linejoin="round" opacity="1" fill="none"></path><path d="M695.8 381.85L704.2 381.45" stroke="#000000" stroke-width="4" stroke-linecap="round" stroke-linejoin="round" opacity="1" fill="none"></path><path d="M723.8 423.85C727.9 422.35 731.9 420.85 735.9 419.35" stroke="#000000" stroke-width="4" stroke-linecap="round" stroke-linejoin="round" opacity="1" fill="none"></path><path d="M722.5 440.65H731.6" stroke="#000000" stroke-width="4" stroke-linecap="round" stroke-linejoin="round" opacity="1" fill="none"></path><path d="M748 386.25L757 381.85" stroke="#000000" stroke-width="4" stroke-linecap="round" stroke-linejoin="round" opacity="1" fill="none"></path><path d="M706.7 364.35C708.47 364.35 709.9 362.92 709.9 361.15 709.9 359.38 708.47 357.95 706.7 357.95 704.93 357.95 703.5 359.38 703.5 361.15 703.5 362.92 704.93 364.35 706.7 364.35Z" fill="#221f1f" opacity="1" stroke-width="4" stroke="#000000"></path><path d="M803.9 325.15C819.42 325.15 832 312.57 832 297.05 832 281.53 819.42 268.95 803.9 268.95 788.38 268.95 775.8 281.53 775.8 297.05 775.8 312.57 788.38 325.15 803.9 325.15Z" fill="#221f1f" opacity="1" stroke-width="4" stroke="#000000"></path><path d="M751.1 285.25L818.7 347.65" stroke="#000000" stroke-width="4" stroke-linecap="round" stroke-linejoin="round" opacity="1" fill="none"></path><path d="M1012.5 981.05C1009.2 972.75 1005.8 964.85 1002.4 957.45L905.3 993.45 1012.5 981.05Z" fill="#ac704e00" opacity="0" stroke-width="4" stroke="#ffffff00"></path><path d="M813.1 1090.55C814.5 1077.95 815.7 1063.45 816.6 1047.15 817.4 1033.35 817.6 1020.35 817.2 1008.35L715 1008.25C719.3 1032.25 722.5 1054.75 722.7 1072.25 722.7 1075.75 722.7 1078.95 722.5 1082.15L730 1124.35 746.2 1136.95 804.4 1130.35 810.6 1109.65C811.2 1105.35 811.8 1101.05 812.3 1096.75 812.7 1094.65 813 1092.65 813.1 1090.55Z" fill="#ac704e" opacity="1" stroke-width="4" stroke="#000000"></path><path d="M744.9 1125.95C736.7 1123.95 752.1 1107.55 752.1 1094.25 752.1 1082.15 740.3 1081.95 722.6 1081.95H722.5C722.1 1087.65 721.2 1092.65 719.8 1096.65 718.9 1099.35 717.4 1101.95 715.5 1104.05 699.1 1122.15 675.5 1125.85 666.4 1144.95L666.5 1149.15 802.9 1147.25 804.4 1144.95C807 1133.15 809.1 1121.25 810.7 1109.45H779.7C765.5 1109.55 753.2 1128.05 744.9 1125.95Z" fill="#efdcd7" opacity="1" stroke-width="4" stroke="#000000"></path><path d="M817.3 1008.45H715.1L817.2 1034.75C817.5 1025.55 817.5 1016.75 817.3 1008.45Z" fill="#ac704e00" opacity="0" stroke-width="4" stroke="#ffffff00"></path><path d="M936.3 847.75C907.6 807.35 900.8 756.45 876.1 706.15 851.4 655.85 812.5 627.85 812.5 627.85H778.1C778.1 627.75 778 627.75 778 627.75H700.1C700.1 627.75 681.2 751.35 697.3 903.05 700.7 935.65 708.8 975.75 715 1010.45L834.7 1011.05C843.9 978.15 807.4 935.15 798.4 896.85 792.6 871.85 796.5 841.65 801.3 810.55 816.9 842.95 834.2 876.95 852.4 909.95 867.1 936.45 887.3 965.95 905.4 993.55L1021.3 951.05C1012 897.85 950.9 868.25 936.3 847.75Z" fill="#ffa0dc" opacity="1" stroke-width="4" stroke="#000000"></path><path d="M812.6 627.85L821.23 634.91 832.8 646.15C833.1 646.15 845 644.95 854.1 641.15 831 623.55 822.3 568.65 822.3 568.65L812.6 627.85Z" fill="#ffc93000" opacity="0" stroke-width="4" stroke="#ffffff00"></path><path d="M613.4 488.35L597.7 538.35 628.4 496.85 613.4 488.35Z" fill="#ffc93000" opacity="0" stroke-width="4" stroke="#ffffff00"></path><path d="M728.2 1112.05L714.93 1104.74" stroke="#000000" stroke-width="4" stroke-linecap="round" stroke-linejoin="round" opacity="1" fill="none"></path><path d="M717.7 1124.35L705.43 1113.84" stroke="#000000" stroke-width="4" stroke-linecap="round" stroke-linejoin="round" opacity="1" fill="none"></path><path d="M813.2 744.85C833.5 845.55 866.6 859.35 871.2 941.35 864.4 930.65 854.6 914.35 849 904.25 819.8 847.85 826 864.15 802 811.45L813.2 744.85Z" fill="#ffa0dc00" opacity="0" stroke-width="4" stroke="#ffffff00"></path><path d="M849.4 665.45H831.1L836.6 685.85C839.4 696.15 850.6 704.45 858.8 704.45 865.6 704.45 869.5 702.35 871.9 698.95" stroke="#000000" stroke-width="4" stroke-linecap="round" stroke-linejoin="round" opacity="1" fill="none"></path><path d="M801.2 810.55C804.6 782.05 812.9 754.15 814.6 726.45" stroke="#000000" stroke-width="4" stroke-linecap="round" stroke-linejoin="round" opacity="1" fill="none"></path><path d="M776.7 704.55C786.9 704.55 793 696.25 790.3 686.05L784.8 665.75H747.8L753.3 686.05C756.1 696.25 766.6 704.55 776.7 704.55Z" stroke="#000000" stroke-width="4" stroke-linecap="round" stroke-linejoin="round" opacity="1" fill="none"></path><path d="M720.8 628.95C715.1 672.95 713.1 789.15 724.6 856.95 735.8 923.45 752.2 957.15 755.7 1007.75" stroke="#000000" stroke-width="4" stroke-linecap="round" stroke-linejoin="round" opacity="1" fill="none"></path><path d="M598 538.35L627.6 497.35" stroke="#000000" stroke-width="4" stroke-linecap="round" stroke-linejoin="round" opacity="1" fill="none"></path><path d="M1047.3 1106.55L920.5 1160.05C918.7 1155.25 917.8 1149.85 917.9 1144.75L1045 1091.15C1046.9 1101.05 1047.3 1106.55 1047.3 1106.55Z" fill="#ffa0dc" opacity="1" stroke-width="4" stroke="#000000"></path><path d="M800.5 1160.05H662.9C663.2 1154.85 664.4 1149.75 666.5 1145.05H804.5C802.2 1155.15 800.5 1160.05 800.5 1160.05Z" fill="#ffa0dc" opacity="1" stroke-width="4" stroke="#000000"></path></g><g><path d="M281.75 893.86L264.45 919.77 295.96 906.91 281.75 893.86Z" fill="#ffffff" opacity="1" stroke-width="4" stroke="#000000"></path><path d="M281.75 893.86L264.45 919.77 295.96 906.91 281.75 893.86Z" fill="#ffffff00" opacity="0" stroke-width="4" stroke="#ffffff00"></path><path d="M281.75 893.86L300.01 934.18 359.68 863.25C359.81 863.12 359.68 862.93 359.49 863L281.75 893.86Z" fill="#ffffff" opacity="1" stroke-width="4" stroke="#000000"></path><path d="M246.51 868.65L281.75 893.86 359.55 863C359.62 862.93 359.62 862.8 359.49 862.8L246.51 868.65Z" fill="#ffffff" opacity="1" stroke-width="4" stroke="#000000"></path><path d="M281.75 893.86L289.4 910.77" stroke="#000000" stroke-width="4" stroke-linecap="round" stroke-linejoin="round" opacity="1" fill="none"></path><path d="M359.49 863L281.75 893.86" stroke="#000000" stroke-width="4" stroke-linecap="round" stroke-linejoin="round" opacity="1" fill="none"></path></g></svg>